<?xml version="1.0" encoding="UTF-8" standalone="no"?><!DOCTYPE svg PUBLIC "-//W3C//DTD SVG 1.1//EN" "http://www.w3.org/Graphics/SVG/1.1/DTD/svg11.dtd"><svg width="100%" height="100%" viewBox="0 0 31 26" version="1.1" xmlns="http://www.w3.org/2000/svg" xmlns:xlink="http://www.w3.org/1999/xlink" xml:space="preserve" xmlns:serif="http://www.serif.com/" style="fill-rule:evenodd;clip-rule:evenodd;stroke-linejoin:round;stroke-miterlimit:2;"><path d="M3.719,4.996c-0,-1.472 1.211,-2.683 2.683,-2.683c1.471,-0 2.682,1.211 2.682,2.683c0,1.472 -1.211,2.683 -2.682,2.683c-1.472,-0 -2.683,-1.211 -2.683,-2.683Zm-0.384,7.555c-0.479,0.537 -0.766,1.251 -0.766,2.027c-0,0.776 0.287,1.49 0.766,2.026l0,-4.053Zm6.918,-2.362c-1.422,1.26 -2.318,3.105 -2.318,5.155c-0,1.644 0.575,3.153 1.533,4.336l-0,1.03c-0,0.848 -0.685,1.533 -1.533,1.533l-3.067,0c-0.848,0 -1.533,-0.685 -1.533,-1.533l0,-1.284c-1.811,-0.862 -3.066,-2.707 -3.066,-4.848c0,-2.966 2.4,-5.366 5.366,-5.366l1.533,-0c1.15,-0 2.213,0.359 3.085,0.972l0,0.005Zm11.48,10.521l-0,-1.03c0.958,-1.183 1.533,-2.692 1.533,-4.336c-0,-2.05 -0.896,-3.895 -2.319,-5.16c0.872,-0.613 1.935,-0.972 3.085,-0.972l1.533,-0c2.966,-0 5.366,2.4 5.366,5.366c0,2.141 -1.255,3.986 -3.066,4.848l-0,1.284c-0,0.848 -0.685,1.533 -1.533,1.533l-3.066,0c-0.848,0 -1.533,-0.685 -1.533,-1.533Zm0.383,-15.714c-0,-1.472 1.211,-2.683 2.683,-2.683c1.472,-0 2.683,1.211 2.683,2.683c-0,1.472 -1.211,2.683 -2.683,2.683c-1.472,-0 -2.683,-1.211 -2.683,-2.683Zm5.749,7.555l-0,4.058c0.479,-0.541 0.766,-1.25 0.766,-2.027c0,-0.776 -0.287,-1.49 -0.766,-2.026l-0,-0.005Zm-12.265,-10.238c1.682,-0 3.066,1.384 3.066,3.066c0,1.682 -1.384,3.066 -3.066,3.066c-1.682,0 -3.066,-1.384 -3.066,-3.066c-0,-1.682 1.384,-3.066 3.066,-3.066Zm-3.833,13.031c0,0.776 0.288,1.485 0.767,2.027l-0,-4.053c-0.479,0.541 -0.767,1.25 -0.767,2.026Zm6.899,-2.026l0,4.058c0.479,-0.542 0.767,-1.251 0.767,-2.027c-0,-0.776 -0.288,-1.49 -0.767,-2.027l0,-0.004Zm3.067,2.026c-0,2.142 -1.256,3.986 -3.067,4.849l0,2.05c0,0.848 -0.685,1.533 -1.533,1.533l-3.066,0c-0.848,0 -1.533,-0.685 -1.533,-1.533l-0,-2.05c-1.811,-0.863 -3.066,-2.707 -3.066,-4.849c-0,-2.965 2.4,-5.366 5.366,-5.366l1.533,0c2.965,0 5.366,2.401 5.366,5.366Z" style="fill:#2f2f2f;fill-rule:nonzero;"/></svg>