<?xml version="1.0" encoding="UTF-8" standalone="no"?><!DOCTYPE svg PUBLIC "-//W3C//DTD SVG 1.1//EN" "http://www.w3.org/Graphics/SVG/1.1/DTD/svg11.dtd"><svg width="100%" height="100%" viewBox="0 0 31 28" version="1.1" xmlns="http://www.w3.org/2000/svg" xmlns:xlink="http://www.w3.org/1999/xlink" xml:space="preserve" xmlns:serif="http://www.serif.com/" style="fill-rule:evenodd;clip-rule:evenodd;stroke-linejoin:round;stroke-miterlimit:2;"><path d="M14.349,0.699c0.793,-0.367 1.709,-0.367 2.502,-0l11.637,5.376c0.452,0.208 0.74,0.661 0.74,1.161c-0,0.5 -0.288,0.953 -0.74,1.16l-11.637,5.377c-0.793,0.367 -1.709,0.367 -2.502,-0l-11.637,-5.377c-0.452,-0.213 -0.739,-0.665 -0.739,-1.16c-0,-0.495 0.287,-0.953 0.739,-1.161l11.637,-5.376Zm11.307,10.881l2.832,1.309c0.452,0.208 0.74,0.66 0.74,1.161c-0,0.5 -0.288,0.953 -0.74,1.16l-11.637,5.377c-0.793,0.367 -1.709,0.367 -2.502,-0l-11.637,-5.377c-0.452,-0.213 -0.739,-0.665 -0.739,-1.16c-0,-0.495 0.287,-0.953 0.739,-1.161l2.832,-1.309l8.092,3.737c1.245,0.575 2.683,0.575 3.928,-0l8.092,-3.737Zm-8.092,10.55l8.092,-3.737l2.832,1.31c0.452,0.208 0.74,0.66 0.74,1.16c-0,0.501 -0.288,0.953 -0.74,1.161l-11.637,5.376c-0.793,0.368 -1.709,0.368 -2.502,0l-11.637,-5.376c-0.452,-0.213 -0.739,-0.665 -0.739,-1.161c-0,-0.495 0.287,-0.952 0.739,-1.16l2.832,-1.31l8.092,3.737c1.245,0.575 2.683,0.575 3.928,0Z" style="fill:#2f2f2f;fill-rule:nonzero;"/></svg>