<?xml version="1.0" encoding="UTF-8" standalone="no"?><!DOCTYPE svg PUBLIC "-//W3C//DTD SVG 1.1//EN" "http://www.w3.org/Graphics/SVG/1.1/DTD/svg11.dtd"><svg width="100%" height="100%" viewBox="0 0 24 25" version="1.1" xmlns="http://www.w3.org/2000/svg" xmlns:xlink="http://www.w3.org/1999/xlink" xml:space="preserve" xmlns:serif="http://www.serif.com/" style="fill-rule:evenodd;clip-rule:evenodd;stroke-linejoin:round;stroke-miterlimit:2;"><path d="M13.207,5.773l0,11.129c0,0.812 -0.656,1.468 -1.467,1.468c-0.812,-0 -1.468,-0.656 -1.468,-1.468l0,-11.129l-3.366,3.366c-0.573,0.573 -1.504,0.573 -2.077,-0c-0.573,-0.574 -0.573,-1.505 -0,-2.078l5.87,-5.87c0.573,-0.573 1.504,-0.573 2.077,0l5.87,5.87c0.573,0.573 0.573,1.504 0,2.078c-0.573,0.573 -1.504,0.573 -2.077,-0l-3.362,-3.366Zm-10.272,11.129l5.87,0c-0,1.619 1.316,2.935 2.935,2.935c1.619,0 2.935,-1.316 2.935,-2.935l5.87,0c1.618,0 2.935,1.317 2.935,2.935l-0,1.468c-0,1.619 -1.317,2.935 -2.935,2.935l-17.61,-0c-1.619,-0 -2.935,-1.316 -2.935,-2.935l0,-1.468c0,-1.618 1.316,-2.935 2.935,-2.935Zm16.876,4.77c0.604,-0 1.101,-0.497 1.101,-1.101c-0,-0.604 -0.497,-1.1 -1.101,-1.1c-0.604,-0 -1.101,0.496 -1.101,1.1c0,0.604 0.497,1.101 1.101,1.101Z" style="fill:#212121;fill-rule:nonzero;"/></svg>