<?xml version="1.0" encoding="UTF-8"?>
<svg version="1.1" xmlns="http://www.w3.org/2000/svg" width="2194" height="499">
<path d="M0 0 C35.80576513 32.88108426 51.60800607 77.08537157 54 125 C55.81434045 169.84822794 45.81211348 216.24759343 16 251 C15.31292969 251.80953125 14.62585938 252.6190625 13.91796875 253.453125 C-0.86471794 270.39328488 -18.5091229 282.86249566 -39 292 C-39.73879395 292.33483398 -40.47758789 292.66966797 -41.23876953 293.01464844 C-67.60777029 304.79689547 -96.28916094 309.23648703 -125 310 C-126.66675781 310.04447266 -126.66675781 310.04447266 -128.3671875 310.08984375 C-131.58318874 310.12666819 -134.78479403 310.08327673 -138 310 C-138.70640625 309.98211426 -139.4128125 309.96422852 -140.140625 309.94580078 C-183.37750111 308.70346604 -228.68132386 298.06637337 -262 269 C-262.95261719 268.18015625 -263.90523437 267.3603125 -264.88671875 266.515625 C-281.36664561 252.05619505 -292.87162855 234.82033019 -302 215 C-302.53496094 213.84371094 -303.06992187 212.68742188 -303.62109375 211.49609375 C-324.02190463 164.07083209 -321.95613836 104.12523304 -303.08349609 56.55761719 C-295.15902803 37.85172998 -284.41098786 21.90861469 -270.32958984 7.38085938 C-269.19671454 6.20429993 -268.08962223 5.00300377 -266.98828125 3.796875 C-242.45274381 -22.38855759 -204.57506892 -35.68178136 -170 -41 C-168.87247314 -41.17789063 -168.87247314 -41.17789063 -167.72216797 -41.359375 C-110.85707871 -49.86067422 -43.68652397 -39.81782634 0 0 Z M-201 39 C-201.90363281 39.81082031 -202.80726563 40.62164062 -203.73828125 41.45703125 C-227.00021396 63.43199673 -235.32138421 96.25340727 -236.28515625 127.33203125 C-236.93108733 163.49727553 -230.79564162 198.03606761 -205.3125 225.1875 C-184.38275418 245.37206911 -154.57351925 252.64473555 -126.18725586 252.35107422 C-97.84129344 251.50510268 -71.09296106 243.91843089 -50.5703125 223.59375 C-45.20273615 217.88279334 -40.89767344 211.78797718 -37 205 C-36.48695313 204.12214844 -35.97390625 203.24429688 -35.4453125 202.33984375 C-17.05737462 168.46983381 -17.20079961 122.97603856 -27.640625 86.77880859 C-32.16058535 71.94768869 -38.78344016 58.75012379 -49 47 C-49.45503906 46.401875 -49.91007813 45.80375 -50.37890625 45.1875 C-63.76348176 27.92739068 -87.60547978 18.48981295 -108.55859375 15.5390625 C-141.05822165 11.80262264 -175.98592917 16.27106452 -201 39 Z " fill="#FF9933" transform="translate(358,189)"/>
<path d="M0 0 C50.56460758 0 50.56460758 0 58.22338867 5.63623047 C62.16449048 9.83590125 65.31967049 14.21102889 68.3125 19.125 C72.73733049 26.1645722 77.45562225 32.72974255 82.62402344 39.25 C85.287385 42.63732712 87.88799677 46.07302746 90.5 49.5 C94.32484039 54.50657959 98.15615643 59.50799537 102 64.5 C106.40772904 70.22432342 110.79685525 75.96270617 115.18359375 81.703125 C118.44848676 85.97437327 121.72003958 90.24031114 125 94.5 C129.40772904 100.22432342 133.79685525 105.96270617 138.18359375 111.703125 C141.44848676 115.97437327 144.72003958 120.24031114 148 124.5 C152.40772904 130.22432342 156.79685525 135.96270617 161.18359375 141.703125 C164.44848676 145.97437327 167.72003958 150.24031114 171 154.5 C175.40772904 160.22432342 179.79685525 165.96270617 184.18359375 171.703125 C187.44848676 175.97437327 190.72003958 180.24031114 194 184.5 C194.79792969 185.53898438 195.59585937 186.57796875 196.41796875 187.6484375 C198.28574002 190.07807052 200.16634543 192.49733665 202.05078125 194.9140625 C207.88278473 202.42810328 213.44886188 210.038314 218.75 217.9375 C226.63442523 230.93097338 226.63442523 230.93097338 239 238 C239.33 159.46 239.66 80.92 240 0 C292.11764706 0 292.11764706 0 298.75 5.125 C304.65074557 12.66484156 304.42537027 21.28347638 304.36076355 30.49647522 C304.36207361 31.85305428 304.3647037 33.20963258 304.36853105 34.56620687 C304.37520875 38.27428583 304.36328111 41.98210264 304.34819686 45.69014823 C304.33520132 49.69616205 304.33962844 53.70216194 304.34190369 57.70819092 C304.3434742 64.64237513 304.33408822 71.57647443 304.31719017 78.51063728 C304.29277462 88.53617049 304.28499229 98.56166279 304.2812262 108.58722251 C304.27466572 124.85431417 304.25471552 141.12136061 304.22631836 157.38842773 C304.19876733 173.18725356 304.17753886 188.9860671 304.16479492 204.78491211 C304.16400675 205.75929515 304.16321858 206.73367819 304.16240653 207.737588 C304.15849132 212.62594351 304.15470022 217.51429911 304.15097082 222.40265477 C304.11988749 262.93513463 304.06706269 303.46756472 304 344 C297.02584356 344.10178049 290.05188011 344.17162496 283.07714844 344.21972656 C280.70663291 344.23978826 278.33616655 344.26704426 275.96582031 344.30175781 C272.55000649 344.35051418 269.13484945 344.37302399 265.71875 344.390625 C264.14015198 344.42159271 264.14015198 344.42159271 262.52966309 344.45318604 C254.87559197 344.45549751 249.50523358 343.03473243 243.671875 337.984375 C238.73914099 332.24957042 234.14703655 326.31419975 229.65112305 320.23510742 C226.21812389 315.59485222 222.69109518 311.05117564 219.0625 306.5625 C214.27350613 300.62999413 209.61181061 294.61148951 204.99414062 288.54492188 C201.04639783 283.36087528 197.06644479 278.2032572 193.0625 273.0625 C192.1950415 271.94875 192.1950415 271.94875 191.31005859 270.8125 C190.13480282 269.30420616 188.95934625 267.79606875 187.78369141 266.28808594 C179.15436249 255.21854438 170.54664757 244.13350913 162 233 C161.24976563 232.02675781 160.49953125 231.05351562 159.7265625 230.05078125 C149.1845261 216.37415263 138.71011038 202.64625065 128.375 188.8125 C123.0169038 181.64239564 117.56685312 174.55186142 112.05371094 167.50048828 C107.8622869 162.13163146 103.75149042 156.7084073 99.67895508 151.24902344 C95.48966531 145.63756734 91.2496586 140.0658403 87 134.5 C81.56467414 127.38077111 76.15684235 120.24256008 70.8046875 113.06054688 C70.35867188 112.46306641 69.91265625 111.86558594 69.453125 111.25 C69.07317383 110.73953125 68.69322266 110.2290625 68.30175781 109.703125 C66.571789 107.43975996 64.77962599 105.22453248 63 103 C63 182.53 63 262.06 63 344 C42.21 344 21.42 344 0 344 C0 230.48 0 116.96 0 0 Z " fill="#FF9933" transform="translate(1507,150)"/>
<path d="M0 0 C1.14313156 -0.00563965 2.28626312 -0.0112793 3.46403503 -0.01708984 C4.70451096 -0.01304138 5.94498688 -0.00899292 7.22305298 -0.00482178 C9.20016014 -0.01007874 9.20016014 -0.01007874 11.21720886 -0.01544189 C14.82789154 -0.02454676 18.43845963 -0.02102528 22.04914427 -0.01468372 C25.85358695 -0.00959495 29.65802028 -0.01432489 33.46246338 -0.01745605 C39.86981953 -0.02109531 46.27712961 -0.01630599 52.68447876 -0.0067749 C60.02888604 0.00402595 67.37318152 0.00064551 74.71758592 -0.01042771 C81.06283738 -0.01960271 87.40805578 -0.02073431 93.75331175 -0.01555037 C97.52443675 -0.01247517 101.29550992 -0.01189364 105.06663132 -0.01862335 C148.77830177 -0.08594012 148.77830177 -0.08594012 170.03799438 4.50396729 C171.59018677 4.83038208 171.59018677 4.83038208 173.17373657 5.16339111 C207.37598088 12.62825072 240.1845428 29.86793761 259.66299438 59.87896729 C261.19391548 62.3192202 262.6831396 64.78249793 264.16299438 67.25396729 C264.84490845 68.37287354 265.52682251 69.49177979 266.22940063 70.64459229 C294.62743114 119.23723778 292.99744835 190.45760762 279.16299438 243.25396729 C273.30572529 265.48884319 262.03393786 285.68814888 246.16299438 302.25396729 C245.1362561 303.37545166 245.1362561 303.37545166 244.08877563 304.51959229 C218.78134811 331.27716815 177.74508009 342.92633307 141.93114471 344.34220123 C129.61435404 344.684824 117.28607804 344.55006245 104.96652222 344.45996094 C99.40187346 344.42325337 93.83712086 344.4099943 88.27238464 344.39260101 C79.90237954 344.36391629 71.53303461 344.30628004 63.16299438 344.25396729 C63.16299438 325.44396729 63.16299438 306.63396729 63.16299438 287.25396729 C91.16299438 286.87896729 91.16299438 286.87896729 99.83486938 286.77593994 C111.75909457 286.60928329 123.63768654 286.30622374 135.52627563 285.32818604 C136.47442139 285.25053009 137.42256714 285.17287415 138.39944458 285.09286499 C160.87442651 283.04675861 182.00269461 275.41426706 198.16299438 259.25396729 C198.7263147 258.69064697 199.28963501 258.12732666 199.87002563 257.54693604 C222.32317618 233.19800497 223.12410176 192.75469561 222.03799438 161.50396729 C220.65220898 132.59442373 216.49332879 102.77630586 194.16299438 82.25396729 C182.98733677 73.18829711 170.60752957 67.20708536 156.78799438 63.44146729 C156.08271606 63.24649658 155.37743774 63.05152588 154.65078735 62.85064697 C138.66341272 58.82451265 122.33064627 58.97906019 105.97158813 59.05865479 C103.686601 59.0623942 101.40161225 59.06523677 99.11662292 59.06723022 C93.1606386 59.07479368 87.20475492 59.09437784 81.24880981 59.11663818 C75.14795289 59.13725539 69.04707938 59.14626558 62.94619751 59.15631104 C51.01841803 59.17763201 39.09071827 59.21241303 27.16299438 59.25396729 C28.15518038 59.95754175 29.14736637 60.66111622 30.16961861 61.38601112 C36.28438647 66.21785804 41.17492092 70.92874828 42.45437241 78.87482834 C43.06796546 85.81866581 42.89693617 92.75889849 42.75234985 99.72027588 C42.74839571 102.39245889 42.75001184 105.06410381 42.75854492 107.73622131 C42.7658479 113.46584747 42.72233854 119.19322318 42.64321518 124.92228317 C42.52890028 133.20488681 42.49292212 141.48641444 42.4753833 149.76972134 C42.4448246 163.21169982 42.35188385 176.6524815 42.21914673 190.09381104 C42.09042436 203.14225319 41.99143397 216.19036903 41.93203735 229.23931885 C41.92835922 230.04511652 41.9246811 230.85091419 41.92089151 231.68112998 C41.90261953 235.72402237 41.88492797 239.76691705 41.86752486 243.80981326 C41.72264638 277.29225891 41.46470112 310.77247627 41.16299438 344.25396729 C20.37299438 344.25396729 -0.41700562 344.25396729 -21.83700562 344.25396729 C-21.90312167 302.31604425 -21.95852196 260.37817029 -21.9902016 218.44021007 C-21.9939538 213.49092202 -21.99783676 208.54163408 -22.00180054 203.59234619 C-22.00258747 202.60701718 -22.0033744 201.62168817 -22.00418518 200.6065007 C-22.01724502 184.64468309 -22.04090205 168.68289783 -22.068464 152.72109942 C-22.09650211 136.34719279 -22.1131785 119.97330312 -22.1192711 103.59937346 C-22.12339085 93.49286597 -22.13641056 83.38644994 -22.16075502 73.2799706 C-22.17659252 66.35295168 -22.18141048 59.42598016 -22.17750975 52.49894445 C-22.1755851 48.50026222 -22.17856997 44.50173999 -22.19462204 40.50308609 C-22.20920965 36.84255045 -22.20996552 33.18228258 -22.1997023 29.52173467 C-22.19783248 27.56966786 -22.21078148 25.61760425 -22.22424954 23.66558301 C-22.18891544 16.79493412 -21.95342833 11.78540998 -17.22372437 6.42584229 C-16.66298218 5.95662354 -16.10223999 5.48740479 -15.52450562 5.00396729 C-14.9714978 4.52443604 -14.41848999 4.04490479 -13.84872437 3.55084229 C-9.50026106 0.74756108 -5.0972048 0.00388893 0 0 Z " fill="#FF9933" transform="translate(1906.8370056152344,149.74603271484375)"/>
<path d="M0 0 C1.04590805 0.00222061 2.0918161 0.00444122 3.16941833 0.00672913 C4.35056717 0.00680466 5.531716 0.00688019 6.74865723 0.00695801 C8.03404892 0.01211929 9.31944061 0.01728058 10.64378357 0.02259827 C11.95193527 0.02401321 13.26008698 0.02542816 14.60787964 0.02688599 C18.09150591 0.03071042 21.57509071 0.04054005 25.05870056 0.05158997 C28.6111444 0.06180569 32.16359491 0.06638395 35.71604919 0.07142639 C42.69067564 0.0821624 49.66527449 0.09923792 56.63987732 0.12025452 C86.38987732 63.87025452 116.13987732 127.62025452 171.26475525 245.74501038 C171.84847767 246.99583249 172.43221792 248.24664629 173.01597595 249.49745178 C174.46850221 252.6098056 175.9207248 255.72230038 177.37229919 258.83509827 C180.06597106 264.61066436 182.76242839 270.3848745 185.46946716 276.15419006 C186.72583714 278.83227579 187.98052106 281.51114993 189.23509216 284.19007874 C189.82442737 285.44730598 190.41455676 286.70416136 191.00559998 287.96058655 C192.90718792 292.00325436 194.78253897 296.05707569 196.63987732 300.12025452 C197.06245819 301.03499542 197.06245819 301.03499542 197.49357605 301.96821594 C198.34374343 303.81827593 199.17731333 305.67502437 200.00706482 307.53431702 C200.4980365 308.62180237 200.98900818 309.70928772 201.49485779 310.82972717 C203.92345171 317.80895721 204.0591232 325.77135351 201.07737732 332.62025452 C197.67992877 338.23447801 192.83029636 342.0567815 186.63987732 344.12025452 C182.10847506 344.50996101 177.57607193 344.49187547 173.03025818 344.49085999 C170.84399293 344.49522137 168.65976881 344.53154316 166.47386169 344.56947327 C157.36892033 344.64683356 150.89613909 344.08936219 144.03440857 337.69056702 C140.26956701 332.65511101 137.91248897 326.68985117 135.32737732 320.99525452 C134.71421244 319.66200593 134.10051058 318.32900418 133.48631287 316.99623108 C128.20368339 305.49657413 123.0721758 293.9281746 117.95506287 282.35414124 C112.74798224 270.57989186 107.45835489 258.84456308 102.13987732 247.12025452 C96.23564768 234.10048123 90.36982704 221.06515578 84.57737732 207.99525452 C79.0108321 195.43650478 73.40651108 182.89546461 67.76487732 170.37025452 C67.39165344 169.5416391 67.01842957 168.71302368 66.63389587 167.85929871 C64.73782698 163.65030594 62.84110773 159.44160661 60.94407654 155.23304749 C57.06846706 146.6344701 53.19797892 138.03358701 49.32737732 129.43275452 C48.95423401 128.60368591 48.5810907 127.77461731 48.19664001 126.92042542 C41.32881428 111.66067289 34.47815639 96.39326941 27.63987732 81.12025452 C25.18762583 84.1506937 23.5755527 87.17148702 21.99534607 90.72962952 C21.23870667 92.42454529 21.23870667 92.42454529 20.46678162 94.15370178 C19.92016042 95.39248515 19.37369714 96.63133821 18.82737732 97.87025452 C18.24935101 99.17110677 17.67097456 100.4718035 17.0922699 101.77235413 C12.37916452 112.38137747 7.73625032 123.02138494 3.09056091 133.66004944 C-1.09795116 143.24967503 -5.30170588 152.83244409 -9.53819275 162.40098572 C-10.19113985 163.87694187 -10.84293141 165.35340999 -11.49333191 166.83049011 C-17.17801895 179.73577318 -23.27015588 192.38668758 -29.36012268 205.12025452 C1.65987732 205.12025452 32.67987732 205.12025452 64.63987732 205.12025452 C80.27666977 237.59666961 80.27666977 237.59666961 84.95237732 247.62025452 C85.51376404 248.80877014 86.07515076 249.99728577 86.65354919 251.22181702 C87.18142029 252.35361389 87.70929138 253.48541077 88.25315857 254.65150452 C88.94598938 256.12973694 88.94598938 256.12973694 89.65281677 257.63783264 C90.63987732 260.12025452 90.63987732 260.12025452 90.63987732 263.12025452 C38.82987732 263.45025452 -12.98012268 263.78025452 -66.36012268 264.12025452 C-64.05012268 266.43025452 -61.74012268 268.74025452 -59.36012268 271.12025452 C-61.2849092 277.20305907 -63.50313154 282.90265569 -66.27418518 288.64369202 C-66.64812408 289.4293454 -67.02206299 290.21499878 -67.40733337 291.02445984 C-68.59504532 293.51709153 -69.78986795 296.00623238 -70.98512268 298.49525452 C-72.15175111 300.93801967 -73.31691736 303.38147693 -74.48164368 305.82514954 C-75.26013755 307.45445594 -76.0415946 309.08234983 -76.82600403 310.70881653 C-78.8466972 314.90483655 -80.81618987 319.11483806 -82.70680237 323.37123108 C-83.0931485 324.2263327 -83.47949463 325.08143433 -83.87754822 325.96244812 C-84.60674836 327.58031974 -85.32253292 329.20433812 -86.02165222 330.83543396 C-88.73138788 336.79151158 -92.42813559 341.15426097 -98.36012268 344.12025452 C-103.20870638 344.42870236 -108.05787838 344.47689535 -112.91529846 344.52528381 C-114.53107738 344.54674363 -116.1467439 344.5807023 -117.76197815 344.62782288 C-127.48582445 344.90864516 -135.74744527 345.12636406 -143.36012268 338.12025452 C-148.14220982 332.06988061 -150.00083951 326.47439806 -149.86402893 318.74916077 C-148.92945828 312.01880314 -145.80044619 306.22441459 -142.84596252 300.18080139 C-141.10620909 296.59724093 -139.41229942 292.99361477 -137.72340393 289.38587952 C-134.97513169 283.51935892 -132.21687615 277.65769507 -129.44996643 271.79994202 C-125.84842702 264.17046111 -122.28191793 256.52536609 -118.73512268 248.87025452 C-114.31060882 239.32247568 -109.87460649 229.78024593 -105.42262268 220.24525452 C-105.13191895 219.62259705 -104.84121521 218.99993958 -104.54170227 218.3584137 C-103.07004387 215.2063597 -101.59819255 212.05439584 -100.12623596 208.90248108 C-97.49437923 203.2666042 -94.86431389 197.62989134 -92.2341156 191.99324036 C-90.77619155 188.8688774 -89.31815122 185.74456871 -87.86012268 182.62025452 C-87.27678879 181.37025478 -86.69345546 180.12025478 -86.11012268 178.87025452 C-63.36012268 130.12025452 -63.36012268 130.12025452 -40.61012268 81.37025452 C-40.32138779 80.75153473 -40.03265289 80.13281494 -39.73516846 79.49534607 C-39.15168922 78.24503778 -38.56820329 76.9947326 -37.98471069 75.74443054 C-36.52855495 72.62417296 -35.07251448 69.50386169 -33.61671448 66.38343811 C-30.96592421 60.70192101 -28.31422594 55.02083562 -25.6583252 49.34170532 C-24.16253641 46.14314754 -22.66753109 42.94422383 -21.17262268 39.74525452 C-20.88335907 39.1264743 -20.59409546 38.50769409 -20.29606628 37.87016296 C-15.68870408 28.01112357 -11.13669188 18.1274978 -6.64649963 8.2144928 C-6.22586243 7.29007385 -5.80522522 6.36565491 -5.37184143 5.41322327 C-5.00534485 4.60393372 -4.63884827 3.79464417 -4.26124573 2.96083069 C-2.88359359 0.14692675 -2.88359359 0.14692675 0 0 Z " fill="#FF9933" transform="translate(1248.360122680664,149.87974548339844)"/>
<path d="M0 0 C49 0 49 0 57 4 C61.16476927 8.3419935 63.10666059 11.38587358 63.1621542 17.3749361 C63.17277903 18.27447492 63.18340386 19.17401374 63.19435066 20.1008113 C63.20098749 21.09027871 63.20762433 22.07974612 63.21446228 23.09919739 C63.2305608 24.67468551 63.2305608 24.67468551 63.24698454 26.28200167 C63.28155031 29.81924027 63.30874151 33.35649456 63.33569336 36.89379883 C63.35831987 39.4232199 63.38118837 41.95263881 63.40428162 44.48205566 C63.6065851 67.59729604 63.71865825 90.71331871 63.80750179 113.82924366 C63.81960914 116.9241679 63.83194282 120.01909115 63.84448242 123.11401367 C63.84758927 123.88321405 63.85069611 124.65241442 63.8538971 125.4449239 C63.90565668 137.88707927 64.00979927 150.32825099 64.13427465 162.76986805 C64.26111933 175.5549568 64.33446133 188.33953544 64.35790926 201.12523669 C64.37252449 208.29956086 64.41098168 215.47204084 64.51078606 222.64573097 C64.60478293 229.4025204 64.62704907 236.15582952 64.60180092 242.91339874 C64.60404686 245.38616599 64.63008376 247.85905024 64.6823349 250.3312664 C65.09544967 270.93384308 65.09544967 270.93384308 57.87936264 278.71580285 C55.05487387 281.37882696 52.14707529 283.72565034 49 286 C50.49143996 286.00219984 50.49143996 286.00219984 52.01301003 286.00444412 C76.19959256 286.04102926 100.38603652 286.10046591 124.57250404 286.18390274 C136.26887875 286.22372234 147.9651859 286.25610001 159.66162109 286.27099609 C169.85551667 286.28399744 180.04926377 286.31092336 190.24307573 286.35461307 C195.64129791 286.37726192 201.03933671 286.39290862 206.43761063 286.39188385 C211.51840201 286.39113927 216.59878749 286.40900901 221.67947388 286.44116783 C223.54427617 286.44968805 225.40912388 286.45140241 227.27393723 286.44580269 C229.82092764 286.43917313 232.36662268 286.45705747 234.91348267 286.48101807 C236.01953305 286.46937744 236.01953305 286.46937744 237.14792788 286.45750165 C242.22477363 286.54200875 245.06926792 287.84373947 249 291 C255.77875382 298.15535125 255.33747924 306.06274029 255.3125 315.375 C255.32861328 316.56867188 255.34472656 317.76234375 255.36132812 318.9921875 C255.36546328 326.46854062 255.2833954 333.06738778 250.28125 339.05859375 C249.6934375 339.51363281 249.105625 339.96867187 248.5 340.4375 C247.9121875 340.91058594 247.324375 341.38367188 246.71875 341.87109375 C243.78883283 343.79551662 241.25764715 344.12480996 237.85145283 344.12304783 C237.00223192 344.1250387 236.15301102 344.12702957 235.27805614 344.12908077 C234.34545121 344.12616811 233.41284628 344.12325544 232.45198059 344.12025452 C231.46359192 344.12111053 230.47520325 344.12196655 229.4568634 344.12284851 C226.11941755 344.12450967 222.78202138 344.11897037 219.44458008 344.11352539 C217.02123612 344.11321921 214.59789207 344.11335229 212.17454815 344.11389065 C205.66904903 344.11411695 199.16356821 344.10830972 192.65807343 344.10128021 C186.55960531 344.09559669 180.46114171 344.09531771 174.3626709 344.09460449 C156.5126115 344.08935151 138.66255552 344.07539043 120.8125 344.0625 C61.0103125 344.0315625 61.0103125 344.0315625 0 344 C0 230.48 0 116.96 0 0 Z " fill="#FF9933" transform="translate(821,150)"/>
<path d="M0 0 C0.99 0 1.98 0 3 0 C3.74830078 1.34964844 3.74830078 1.34964844 4.51171875 2.7265625 C5.2363926 4.02636887 5.96171229 5.32581527 6.6875 6.625 C7.07744141 7.32415527 7.46738281 8.02331055 7.86914062 8.74365234 C10.32927346 13.1228025 12.85851829 17.45138468 15.45703125 21.75 C16.04331299 22.72372559 16.62959473 23.69745117 17.23364258 24.70068359 C18.39605617 26.6251328 19.56627623 28.54489185 20.74487305 30.45947266 C26.24558028 39.58585197 26.24558028 39.58585197 26 44 C24.59196148 46.33693241 23.31386264 48.15241145 21.5625 50.1875 C18.04721741 54.05395805 18.04721741 54.05395805 17 59 C18.73239744 61.2622372 20.48586219 63.37568322 22.375 65.5 C22.91793701 66.12221436 23.46087402 66.74442871 24.02026367 67.38549805 C28.1846992 72.13885594 32.45599073 76.79103434 36.73046875 81.4453125 C40.01918901 85.14724546 43.04103596 89.03185286 46 93 C50.28983879 89.29836606 52.75385166 84.64875536 55.5625 79.8125 C59.4222835 73.27132586 63.34346017 66.79465003 67.5 60.4375 C71.42787376 54.42807346 75.29967715 48.38779883 79.125 42.3125 C79.87511353 41.12539429 79.87511353 41.12539429 80.64038086 39.91430664 C82.99211763 36.1924913 85.3338285 32.46526518 87.65234375 28.72265625 C88.45556504 27.44000137 89.25894068 26.15744313 90.0625 24.875 C90.75472656 23.75867188 91.44695312 22.64234375 92.16015625 21.4921875 C94 19 94 19 97 18 C98.61184745 27.71977822 99.75066733 37.4578602 100.7265625 47.2578125 C100.8803933 48.77906811 101.03448149 50.30029771 101.18881226 51.82150269 C101.50849179 54.97942888 101.82595184 58.13756694 102.14160156 61.29589844 C102.54618915 65.34351871 102.9551427 69.39068309 103.36556435 73.43771553 C103.68249735 76.56535467 103.99782968 79.69315342 104.312603 82.82101059 C104.46297627 84.3145884 104.6136922 85.80813174 104.76475906 87.30163956 C104.97442411 89.37818908 105.18209294 91.45492831 105.38916016 93.53173828 C105.56664291 95.30159592 105.56664291 95.30159592 105.74771118 97.10720825 C106 100 106 100 106 103 C106.68102783 102.63648437 107.36205566 102.27296875 108.0637207 101.8984375 C111.14328924 100.25922333 114.22779123 98.62951897 117.3125 97 C118.38435547 96.42765625 119.45621094 95.8553125 120.56054688 95.265625 C121.58857422 94.72421875 122.61660156 94.1828125 123.67578125 93.625 C124.62364502 93.12226562 125.57150879 92.61953125 126.5480957 92.1015625 C129 91 129 91 132 91 C130.6075932 105.03873679 128.88225953 119.01884777 127 133 C133.38206474 124.11069554 134.89410841 117.79635909 134 107 C133.91257744 105.59660292 133.82938007 104.19293745 133.75 102.7890625 C133.70858887 102.07331055 133.66717773 101.35755859 133.62451172 100.62011719 C133.54165618 99.16770837 133.45994617 97.71523373 133.37939453 96.26269531 C133.19191972 92.95440482 132.96610826 89.67975764 132.6171875 86.3828125 C132.29147251 81.91736502 132.10943856 78.49469907 134.4453125 74.57421875 C136.33124097 72.44089662 138.30291232 70.47753622 140.38964844 68.54199219 C143.77932921 65.29620326 146.92274028 61.80387662 150.125 58.375 C150.79337891 57.67020508 151.46175781 56.96541016 152.15039062 56.23925781 C156.07881072 52.09603248 159.84355196 47.88164101 163.45263672 43.45556641 C165 42 165 42 168 42 C167.75629414 46.70867454 167.50486546 51.41691807 167.25 56.125 C167.20909241 56.88309967 167.16818481 57.64119934 167.1260376 58.42227173 C166.52516077 69.46795167 165.84701788 80.50757775 165.11302185 91.5451889 C164.97611853 93.60433388 164.8398571 95.6635205 164.70373535 97.72271729 C163.95940196 108.96900165 163.95940196 108.96900165 163.5958252 114.2678833 C162.31968711 132.20638938 162.31968711 132.20638938 161.6953125 150.17578125 C161.66848389 152.08677612 161.66848389 152.08677612 161.64111328 154.03637695 C162.04332092 157.35773647 162.60820704 157.87173058 165 160 C165.14367508 159.17172195 165.28735016 158.34344391 165.43537903 157.49006653 C166.79278846 149.67552819 168.16006327 141.86279405 169.53838062 134.05191517 C170.24660058 130.03643107 170.95102016 126.02035785 171.64672852 122.00268555 C172.31856638 118.12369965 173.00042039 114.24659561 173.68918419 110.37058067 C173.94989411 108.89328015 174.2070203 107.41534245 174.46045876 105.93677711 C174.81672296 103.86204433 175.18579281 101.78996605 175.55786133 99.71801758 C175.86763664 97.94930046 175.86763664 97.94930046 176.18367004 96.14485168 C177.40763742 91.42960653 179.56365556 88.10937675 183.15234375 84.87109375 C184.06101196 84.03976929 184.06101196 84.03976929 184.98803711 83.19165039 C185.95302124 82.32334595 185.95302124 82.32334595 186.9375 81.4375 C191.88224839 76.91393768 196.7360361 72.33879636 201.4375 67.5625 C205.15205032 63.79802456 208.94784647 60.21439806 212.98828125 56.80078125 C216.44666721 53.70502217 219.6064478 50.30623787 222.80078125 46.94140625 C225 45 225 45 228 45 C227.39907574 48.8175609 226.27482712 51.76878647 224.48046875 55.18359375 C223.69869263 56.68043701 223.69869263 56.68043701 222.90112305 58.20751953 C222.05287964 59.80635986 222.05287964 59.80635986 221.1875 61.4375 C220.60073486 62.55495605 220.01396973 63.67241211 219.40942383 64.82373047 C215.26761446 72.68409048 211.01961362 80.48326611 206.7331543 88.26538086 C201.98472574 96.93135942 197.47815397 105.71669814 192.96987915 114.50900269 C188.54694873 123.13040609 184.04600827 131.6968495 179.375 140.1875 C172.19450516 151.91829727 172.19450516 151.91829727 167.484375 164.6015625 C166.80387636 167.97112836 164.98783931 170.24267451 163 173 C158.36893823 171.66498708 154.32251109 169.6935516 150.07543945 167.47192383 C118.93848548 151.2208041 85.51603014 141.0477853 51 135 C49.99372559 134.82065918 48.98745117 134.64131836 47.95068359 134.45654297 C17.23787002 129.2629572 -17.35510839 129.51792596 -48 135 C-49.14984375 135.20399414 -50.2996875 135.40798828 -51.484375 135.61816406 C-86.93148295 142.0948032 -123.87982535 152.79493133 -155.05859375 171.35546875 C-158 173 -158 173 -161 173 C-161.65357278 171.77493102 -162.29748233 170.54470484 -162.9375 169.3125 C-163.29714844 168.62800781 -163.65679687 167.94351563 -164.02734375 167.23828125 C-165 165 -165 165 -165.40332031 162.68408203 C-166.05945638 159.73254359 -167.11420089 157.49086216 -168.51953125 154.81640625 C-169.04071533 153.81851074 -169.56189941 152.82061523 -170.09887695 151.79248047 C-170.66437256 150.72658691 -171.22986816 149.66069336 -171.8125 148.5625 C-172.39926514 147.44504395 -172.98603027 146.32758789 -173.59057617 145.17626953 C-177.73238554 137.31590952 -181.98038638 129.51673389 -186.2668457 121.73461914 C-191.01527426 113.06864058 -195.52184603 104.28330186 -200.03012085 95.49099731 C-204.45305039 86.86959562 -208.95393509 78.30311814 -213.625 69.8125 C-225 49.11851806 -225 49.11851806 -225 45 C-221.13203394 45.5567692 -219.41456952 47.24591201 -216.734375 50.0078125 C-215.92613281 50.83023438 -215.11789063 51.65265625 -214.28515625 52.5 C-213.03025391 53.799375 -213.03025391 53.799375 -211.75 55.125 C-206.62437208 60.38741861 -201.50678932 65.52387717 -195.92480469 70.30224609 C-192.53920763 73.28847668 -189.40829894 76.52711417 -186.25 79.75 C-184.96596124 81.05966828 -183.67957737 82.36704231 -182.390625 83.671875 C-181.83407227 84.2400293 -181.27751953 84.80818359 -180.70410156 85.39355469 C-179.02762743 87.07861962 -179.02762743 87.07861962 -176.88134766 88.3269043 C-174.2341553 90.68107108 -174.10825144 92.63519215 -173.5078125 96.09765625 C-173.16689575 97.98931519 -173.16689575 97.98931519 -172.8190918 99.91918945 C-172.58745535 101.30024729 -172.35609842 102.68135203 -172.125 104.0625 C-171.8749952 105.48098543 -171.62342349 106.8991955 -171.37036133 108.31713867 C-170.70098825 112.08963159 -170.051396 115.86528001 -169.40545654 119.6418457 C-168.58596244 124.4080619 -167.74188704 129.16997555 -166.90045166 133.93235779 C-166.2332271 137.70985127 -165.56946753 141.48783485 -164.91650391 145.26782227 C-164.79524643 145.96530579 -164.67398895 146.66278931 -164.54905701 147.38140869 C-164.22096325 149.26940387 -163.89495348 151.15776087 -163.5690918 153.04614258 C-163.05883753 156.04189413 -163.05883753 156.04189413 -162 159 C-160.515 158.01 -160.515 158.01 -159 157 C-157.45944615 145.62261056 -159.53855008 132.99081053 -160.3125 121.5703125 C-160.44749508 119.52443508 -160.58200777 117.47852579 -160.71606445 115.43258667 C-161.06732764 110.08604393 -161.42356836 104.73984639 -161.78137207 99.39373779 C-162.35492762 90.81842589 -162.92291259 82.24275088 -163.48690796 73.66680527 C-163.68394588 70.68656931 -163.88441579 67.70657826 -164.08520508 64.72659302 C-164.20667135 62.89211868 -164.32801571 61.05763627 -164.44921875 59.22314453 C-164.50532318 58.40428268 -164.56142761 57.58542084 -164.61923218 56.741745 C-164.94082465 51.81588883 -165.04963652 46.93650105 -165 42 C-160.91872354 43.61692576 -158.19395226 46.54275881 -155.1875 49.625 C-154.65487549 50.16406982 -154.12225098 50.70313965 -153.57348633 51.25854492 C-150.10602096 54.79353434 -146.79150834 58.4274975 -143.58203125 62.19921875 C-141.43190089 64.64665109 -139.12147903 66.90765186 -136.7734375 69.1640625 C-136.18820313 69.76992187 -135.60296875 70.37578125 -135 71 C-134.10152344 71.80824219 -133.20304687 72.61648437 -132.27734375 73.44921875 C-128.52028732 78.03833681 -129.74299699 83.62015004 -130.1875 89.1875 C-130.31968241 91.52462877 -130.44987568 93.86187085 -130.578125 96.19921875 C-130.64966797 97.35083496 -130.72121094 98.50245117 -130.79492188 99.68896484 C-132.4357477 116.96479972 -132.4357477 116.96479972 -125 132 C-125.52412116 122.58389219 -126.68984081 113.29781697 -127.98364258 103.96069336 C-128.11407959 103.00428955 -128.2445166 102.04788574 -128.37890625 101.0625 C-128.4982251 100.20785156 -128.61754395 99.35320312 -128.74047852 98.47265625 C-129.00392038 95.96264756 -129.04483119 93.52182475 -129 91 C-125.24936435 91.5866753 -122.440724 92.64940008 -119.13671875 94.50390625 C-118.33709717 94.94806885 -117.53747559 95.39223145 -116.71362305 95.84985352 C-115.71500244 96.41502686 -114.71638184 96.9802002 -113.6875 97.5625 C-111.95965155 98.53293427 -110.23152489 99.50287328 -108.50317383 100.47241211 C-107.65322342 100.94948105 -106.80327301 101.42654999 -105.92756653 101.91807556 C-105.29146957 102.27511063 -104.65537262 102.63214569 -104 103 C-101.65234571 85.21308885 -99.76206961 67.39262288 -98.01263428 49.53833008 C-97.67282242 46.07741003 -97.32939384 42.61684875 -96.98632812 39.15625 C-96.32080803 32.43783437 -95.65908658 25.71904975 -95 19 C-93.68 19 -92.36 19 -91 19 C-89.63476562 20.44262695 -89.63476562 20.44262695 -88.40625 22.48828125 C-87.93985107 23.24713623 -87.47345215 24.00599121 -86.99291992 24.7878418 C-86.50025635 25.620979 -86.00759277 26.45411621 -85.5 27.3125 C-84.4235635 29.07575679 -83.34673008 30.83877133 -82.26953125 32.6015625 C-81.72377441 33.50551758 -81.17801758 34.40947266 -80.61572266 35.34082031 C-78.19490779 39.32503238 -75.69015243 43.25439836 -73.1875 47.1875 C-69.83598121 52.48272107 -66.50412006 57.78978548 -63.19140625 63.109375 C-53.81732943 78.19806251 -53.81732943 78.19806251 -44 93 C-37.10598692 85.70108353 -30.33292841 78.4019721 -24.08203125 70.5390625 C-21.33464658 67.1885934 -18.36095523 64.07300967 -15.3359375 60.97265625 C-13.82449547 59.13670998 -13.82449547 59.13670998 -13.99609375 57.11328125 C-15.97940386 52.93829771 -19.30102036 49.58361469 -22.26171875 46.0703125 C-24 43 -24 43 -23.5078125 40.0234375 C-21.87472653 36.74880397 -20.12506955 33.60054282 -18.1875 30.5 C-17.38522715 29.19753218 -16.58455185 27.89407948 -15.78515625 26.58984375 C-15.34574707 25.87296387 -14.90633789 25.15608398 -14.45361328 24.41748047 C-12.80488733 21.67551131 -11.21103104 18.90536391 -9.62109375 16.12890625 C-9.04270752 15.12601563 -8.46432129 14.123125 -7.8684082 13.08984375 C-6.71412148 11.08548086 -5.56799005 9.07639738 -4.43041992 7.0625 C-3.89908447 6.14597656 -3.36774902 5.22945313 -2.8203125 4.28515625 C-2.34867676 3.45894775 -1.87704102 2.63273926 -1.39111328 1.78149414 C-0.9320459 1.19360107 -0.47297852 0.60570801 0 0 Z " fill="#FF9933" transform="translate(225,0)"/>
<path d="M0 0 C1.2650386 -0.00960754 2.53007721 -0.01921509 3.83345032 -0.02911377 C5.22124044 -0.03396205 6.60903265 -0.03824081 7.99682617 -0.04199219 C9.4168854 -0.04774432 10.8369446 -0.05350205 12.25700378 -0.05926514 C15.23709475 -0.06977644 18.21715873 -0.07561796 21.19726562 -0.07910156 C25.01052416 -0.08458053 28.82342457 -0.10859479 32.63657093 -0.13707352 C35.57143687 -0.15572686 38.50621711 -0.16090696 41.44113731 -0.16243744 C42.84652345 -0.16545945 44.25190824 -0.17347277 45.6572361 -0.18662262 C47.62688728 -0.20373421 49.5966862 -0.19995067 51.56640625 -0.1953125 C52.68622391 -0.19895813 53.80604156 -0.20260376 54.95979309 -0.20635986 C58.39179805 0.21161393 60.23295205 1.08484749 62.97729492 3.16113281 C65.51130499 7.46894993 66.6408996 11.14082125 65.72816467 16.1532135 C62.66701397 24.33911207 53.19354574 31.09173867 47.07495117 37.19628906 C46.02780356 38.24411227 44.98080426 39.29208371 43.9339447 40.3401947 C41.75120166 42.5244027 39.56668467 44.70681613 37.38085938 46.88793945 C34.59943068 49.66367162 31.82251716 52.44387064 29.04692936 55.22544193 C26.88928471 57.38672484 24.72923345 59.54558996 22.56847954 61.70376396 C21.54443722 62.72714602 20.52111818 63.75125242 19.49858284 64.77614021 C18.06170368 66.21560013 16.62158678 67.65174734 15.18066406 69.0871582 C14.36682755 69.90019913 13.55299103 70.71324005 12.7144928 71.55091858 C10.55711463 73.60821201 8.37359052 75.56929152 6.11973572 77.51670837 C2.07286792 81.03246551 -1.73094606 84.74131143 -5.50512695 88.54589844 C-6.20545547 89.24768723 -6.905784 89.94947601 -7.62733459 90.67253113 C-9.13378861 92.1827637 -10.63908734 93.69414941 -12.14332581 95.20658875 C-14.52970461 97.60583865 -16.91928724 100.00185669 -19.30969238 102.39709473 C-24.38351886 107.48229781 -29.45340323 112.57141976 -34.52270508 117.66113281 C-40.40126051 123.56335785 -46.28145799 129.46392734 -52.16590881 135.36027527 C-54.50985578 137.71066235 -56.85074886 140.06406152 -59.19152832 142.41760254 C-60.64096363 143.87067338 -62.09054122 145.32360232 -63.5402832 146.77636719 C-64.18155655 147.42280685 -64.8228299 148.06924652 -65.48353577 148.73527527 C-69.28683694 152.53901335 -73.20876518 156.14582245 -77.28856659 159.65184784 C-79.46234032 161.54376365 -81.50353231 163.54340339 -83.52270508 165.59863281 C-84.19301758 166.27796875 -84.86333008 166.95730469 -85.55395508 167.65722656 C-86.03864258 168.15351563 -86.52333008 168.64980469 -87.02270508 169.16113281 C-85.44636005 173.25099565 -82.49592401 175.68925379 -79.29223633 178.51660156 C-74.3685166 182.96052667 -69.58372315 187.50616553 -64.90942383 192.21191406 C-64.31791534 192.80672577 -63.72640686 193.40153748 -63.11697388 194.01437378 C-61.31268547 195.8321268 -59.51099827 197.6524175 -57.71020508 199.47363281 C-49.15517651 208.28885535 -49.15517651 208.28885535 -40.10473633 216.57910156 C-32.62014704 222.93827809 -25.90789061 230.22631549 -19.00415039 237.20019531 C-10.74976531 245.68134001 -10.74976531 245.68134001 -2.02270508 253.66113281 C5.44199376 259.98113701 12.12080835 267.25530603 18.99584961 274.20019531 C20.96670833 276.18929384 22.94068497 278.17526178 24.91479492 280.16113281 C25.50462158 280.75925781 26.09444824 281.35738281 26.70214844 281.97363281 C30.33117373 285.62353506 34.09758271 289.04076459 37.99075317 292.40612793 C41.20981084 295.24999563 44.24670018 298.26809753 47.28588867 301.30175781 C48.26417381 302.27505035 48.26417381 302.27505035 49.26222229 303.26800537 C50.62386745 304.62463363 51.98420372 305.98257683 53.34326172 307.34179688 C55.42876839 309.42509146 57.5221818 311.50022481 59.6159668 313.57519531 C60.94392869 314.90022731 62.27142001 316.22573113 63.59838867 317.55175781 C64.22434433 318.17052795 64.85029999 318.7892981 65.495224 319.42681885 C66.06994949 320.00462097 66.64467499 320.5824231 67.23681641 321.17773438 C67.74341293 321.68290588 68.25000946 322.18807739 68.7719574 322.70855713 C71.59934203 326.11589332 71.26190754 329.96309665 70.97729492 334.16113281 C69.36216967 338.36045847 67.85479942 340.8712649 63.97729492 343.16113281 C61.03103638 343.54881287 61.03103638 343.54881287 57.55981445 343.56518555 C55.60726242 343.58421181 55.60726242 343.58421181 53.61526489 343.60362244 C52.19687745 343.60157065 50.7784911 343.59858233 49.36010742 343.59472656 C47.90045936 343.59928956 46.44081345 343.60459548 44.98117065 343.61061096 C41.92298656 343.61954094 38.86506359 343.61712132 35.80688477 343.60717773 C31.89719149 343.59570134 27.9884032 343.61587848 24.07882881 343.64509487 C21.06410031 343.66348807 18.0495873 343.66315807 15.03481674 343.65745735 C13.59397998 343.65730444 12.15312832 343.66332354 10.71234512 343.67574883 C8.69280239 343.69070901 6.67311065 343.67732588 4.65356445 343.6628418 C3.50647003 343.66267563 2.35937561 343.66250946 1.17752075 343.66233826 C-7.11987617 342.36283606 -13.01245181 334.54497328 -18.2121582 328.46386719 C-22.13458438 323.96519229 -26.31173607 319.76274155 -30.55395508 315.56738281 C-31.34870239 314.77642212 -32.14344971 313.98546143 -32.96228027 313.17053223 C-35.47998939 310.66493758 -38.00091954 308.16262423 -40.52270508 305.66113281 C-43.84858697 302.36201602 -47.17102844 299.05948908 -50.49145508 295.75488281 C-51.24269653 295.0119397 -51.99393799 294.26899658 -52.76794434 293.50354004 C-56.76635844 289.52353008 -60.55467343 285.44513734 -64.2364502 281.17224121 C-67.51548397 277.48044312 -71.04435611 274.03821415 -74.55395508 270.56738281 C-75.34870239 269.77642212 -76.14344971 268.98546143 -76.96228027 268.17053223 C-79.47998939 265.66493758 -82.00091954 263.16262423 -84.52270508 260.66113281 C-87.84858697 257.36201602 -91.17102844 254.05948908 -94.49145508 250.75488281 C-95.24269653 250.0119397 -95.99393799 249.26899658 -96.76794434 248.50354004 C-100.13486701 245.15211485 -103.40828379 241.7751316 -106.5090332 238.17480469 C-110.38274803 233.6792429 -114.55573497 229.52033949 -118.77270508 225.34863281 C-119.58964844 224.53547607 -120.4065918 223.72231934 -121.24829102 222.88452148 C-123.83733179 220.30759984 -126.42959245 217.73395656 -129.02270508 215.16113281 C-132.44233226 211.76826128 -135.85852656 208.37198624 -139.27270508 204.97363281 C-140.04582031 204.20881592 -140.81893555 203.44399902 -141.61547852 202.65600586 C-145.7499363 198.54006192 -149.71164161 194.34270938 -153.50076294 189.9057312 C-156.28339599 186.71600604 -159.33443268 183.80782882 -162.36645508 180.85644531 C-166.10079944 177.18468773 -167.23196941 175.25483805 -167.52270508 170.03613281 C-167.59489258 169.12605469 -167.66708008 168.21597656 -167.74145508 167.27832031 C-166.62067369 162.41754015 -163.45788726 159.65216503 -160.02270508 156.16113281 C-159.34401367 155.46745605 -158.66532227 154.7737793 -157.96606445 154.05908203 C-155.11576945 151.18558695 -152.22669946 148.35253338 -149.33911133 145.51660156 C-148.62625977 144.81148437 -147.9134082 144.10636719 -147.17895508 143.37988281 C-146.54795898 142.76048828 -145.91696289 142.14109375 -145.2668457 141.50292969 C-143.37143729 139.52504049 -141.58292749 137.50904814 -139.79614258 135.43457031 C-135.88964344 130.94179718 -131.72303487 126.75221986 -127.49145508 122.56738281 C-126.69670776 121.77642212 -125.90196045 120.98546143 -125.08312988 120.17053223 C-121.7173496 116.82094708 -118.3455946 113.47740011 -114.97436523 110.13330078 C-112.4988028 107.67592342 -110.02632425 105.21547224 -107.55395508 102.75488281 C-106.80271362 102.0119397 -106.05147217 101.26899658 -105.27746582 100.50354004 C-101.2746976 96.51919601 -97.48131813 92.43644674 -93.79553223 88.15881348 C-90.59046537 84.54723742 -87.14282121 81.17969455 -83.71020508 77.78613281 C-82.55137817 76.63298584 -82.55137817 76.63298584 -81.36914062 75.45654297 C-78.09894472 72.20253452 -74.82277018 68.95457015 -71.54711914 65.70605469 C-69.14105223 63.31817929 -66.73807469 60.92722488 -64.33520508 58.53613281 C-63.6058374 57.81506348 -62.87646973 57.09399414 -62.125 56.35107422 C-58.17766084 52.42242554 -54.4432097 48.39042184 -50.80767822 44.17318726 C-47.5717666 40.52560837 -44.09874266 37.11524674 -40.63989258 33.68066406 C-39.86259796 32.90478439 -39.08530334 32.12890472 -38.28445435 31.32951355 C-35.82456612 28.87517125 -33.36121233 26.424342 -30.89770508 23.97363281 C-29.237316 22.31826736 -27.57715767 20.66267042 -25.91723633 19.00683594 C-22.21792582 15.31740718 -18.51769929 11.6289126 -14.81121826 7.94668579 C-13.69448944 6.83180529 -12.58279082 5.71183592 -11.4788208 4.58432007 C-7.51525623 0.53969122 -5.64539571 0.0344959 0 0 Z " fill="#FF9933" transform="translate(706.022705078125,150.8388671875)"/>
<path d="M0 0 C0.99829834 -0.0038269 1.99659668 -0.00765381 3.02514648 -0.01159668 C5.12973035 -0.0143111 7.23434822 -0.00698292 9.33886719 0.00976562 C12.55220061 0.03118136 15.76329826 0.00994735 18.9765625 -0.015625 C21.02604658 -0.01298164 23.07552927 -0.0078565 25.125 0 C26.08140381 -0.00809692 27.03780762 -0.01619385 28.02319336 -0.02453613 C33.63759911 0.05402037 37.30593615 0.49440092 41.5625 4.53125 C45.29557155 11.00381058 44.98328506 17.2572686 44.94345093 24.58825684 C44.94691026 25.92162378 44.95167668 27.25498787 44.95763266 28.588346 C44.97013457 32.24180287 44.96397606 35.89502408 44.95467401 39.5484817 C44.94788051 43.49264911 44.95836623 47.43677628 44.96661377 51.38093567 C44.97995009 59.10338427 44.97707382 66.82574537 44.96837585 74.54819739 C44.96159931 80.82467531 44.96068245 87.10112872 44.9639473 93.37760925 C44.964407 94.27108144 44.96486669 95.16455363 44.96534032 96.08510074 C44.9662995 97.90020089 44.96727214 99.71530103 44.9682581 101.53040117 C44.9768117 118.54858986 44.96697833 135.56673007 44.950857 152.58491081 C44.93745384 167.1857005 44.93978195 181.78641863 44.95361328 196.38720703 C44.96966962 213.34470946 44.97598772 230.3021694 44.96677649 247.25967836 C44.96582085 249.06808248 44.96487774 250.87648661 44.9639473 252.68489075 C44.96348447 253.57464846 44.96302164 254.46440618 44.96254479 255.38112625 C44.95995507 261.649699 44.96432553 267.91824478 44.97138596 274.18681335 C44.97980175 281.82663502 44.97751915 289.46636422 44.96154372 297.1061753 C44.95366207 301.00375576 44.95056757 304.90118207 44.96049118 308.79876137 C44.96944084 312.36780523 44.96450098 315.93655228 44.94855852 319.50556928 C44.94362838 321.40584633 44.95340486 323.30614404 44.96373022 325.20639944 C44.92096894 331.40890072 44.66795549 336.09649121 41.5625 341.53125 C37.17222234 345.70521058 31.45203597 344.96402408 25.75 344.9296875 C24.18028442 344.93399277 24.18028442 344.93399277 22.57885742 344.93838501 C20.36994891 344.94042328 18.16102225 344.93491004 15.95214844 344.92236328 C12.57445854 344.90630685 9.19796525 344.92222063 5.8203125 344.94140625 C3.67187236 344.93942378 1.52343297 344.93558002 -0.625 344.9296875 C-1.63344971 344.93576019 -2.64189941 344.94183289 -3.6809082 344.9480896 C-12.82168759 344.85656874 -12.82168759 344.85656874 -16.4375 341.53125 C-20.51704627 335.66905738 -19.85534072 329.3636713 -19.81845093 322.51184082 C-19.8219091 321.17037465 -19.82667474 319.82891133 -19.83263266 318.48745394 C-19.84515048 314.80700469 -19.83896881 311.12678896 -19.82967401 307.44633889 C-19.82288703 303.47490628 -19.833363 299.50351386 -19.84161377 295.53208923 C-19.85495706 287.75435969 -19.85207072 279.97671698 -19.84337585 272.19898403 C-19.83660205 265.87813725 -19.83568126 259.55731482 -19.8389473 253.23646545 C-19.83963684 251.88729476 -19.83963684 251.88729476 -19.84034032 250.5108681 C-19.8412995 248.68368669 -19.84227213 246.85650528 -19.8432581 245.02932388 C-19.85181374 227.89385436 -19.84197513 210.75843298 -19.825857 193.62297136 C-19.81245366 178.91838258 -19.8147817 164.21386484 -19.82861328 149.50927734 C-19.84466602 132.43532946 -19.85098975 115.36142377 -19.84177649 98.28746939 C-19.84082084 96.46699111 -19.83987773 94.64651283 -19.8389473 92.82603455 C-19.83848447 91.93031291 -19.83802164 91.03459127 -19.83754479 90.11172655 C-19.83495398 83.79811197 -19.83932786 77.48452414 -19.84638596 71.1709137 C-19.85479775 63.47724066 -19.85252758 55.78365945 -19.83654372 48.08999693 C-19.82865667 44.16419395 -19.82557675 40.2385441 -19.83549118 36.31274223 C-19.84442968 32.7190391 -19.83951939 29.12563107 -19.82355852 25.53195471 C-19.81861932 23.61597869 -19.82841485 21.69998219 -19.83873022 19.78402758 C-19.76668247 9.28203625 -19.76668247 9.28203625 -16.4375 4.53125 C-11.34458014 -0.17322682 -6.57570796 -0.05567001 0 0 Z " fill="#FF9933" transform="translate(479.4375,149.46875)"/>
<path d="M0 0 C4.22528814 1.65503373 7.09569386 4.77841639 10.25317383 7.91503906 C10.86983917 8.5201683 11.48650452 9.12529755 12.12185669 9.74876404 C14.15599919 11.74864643 16.18220266 13.75631532 18.20703125 15.765625 C18.89966253 16.45135338 19.59229382 17.13708176 20.30591393 17.84358978 C23.96739734 21.4692684 27.62271969 25.10103086 31.27319336 28.73779297 C35.04905481 32.49706326 38.84540493 36.23491362 42.6468401 39.96829605 C45.5640611 42.84082299 48.4656471 45.72875926 51.3631649 48.62114716 C52.75644018 50.00651173 54.1556045 51.38597926 55.56064796 52.75940704 C57.52184386 54.67933483 59.45990184 56.62001394 61.39379883 58.56738281 C61.98020645 59.13176559 62.56661407 59.69614838 63.17079163 60.27763367 C64.75544739 61.90020752 64.75544739 61.90020752 67 65 C66.89856189 68.93802389 66.10278556 71.45963653 63.6640625 74.5234375 C63.18259766 75.143396 62.70113281 75.76335449 62.20507812 76.40209961 C61.68365234 77.05315674 61.16222656 77.70421387 60.625 78.375 C59.52074201 79.79869463 58.41924519 81.22453457 57.3203125 82.65234375 C56.7624707 83.37534668 56.20462891 84.09834961 55.62988281 84.84326172 C53.14305031 88.1339565 50.81474467 91.52449098 48.5 94.9375 C44.73463588 100.47192728 40.92937708 105.97340734 37.0625 111.4375 C36.56363281 112.14253662 36.06476563 112.84757324 35.55078125 113.57397461 C34.53948527 115.00246276 33.5279288 116.43076652 32.51611328 117.85888672 C30.00656087 121.40297282 27.50353265 124.95166027 25 128.5 C21.90890533 132.88079041 18.81626838 137.26046716 15.71875 141.63671875 C15.17992187 142.39855469 14.64109375 143.16039062 14.0859375 143.9453125 C13.06055193 145.39499554 12.03455218 146.84424444 11.0078125 148.29296875 C8.27618767 152.15648232 5.60480209 156.04979306 3 160 C0.64542967 159.61716338 -0.67829111 159.33091372 -2.36523438 157.59570312 C-2.77064453 156.99693359 -3.17605469 156.39816406 -3.59375 155.78125 C-4.29359009 154.76720093 -4.29359009 154.76720093 -5.00756836 153.73266602 C-5.5000708 152.99588623 -5.99257324 152.25910645 -6.5 151.5 C-7.5739647 149.93602343 -8.64819057 148.37222618 -9.72265625 146.80859375 C-10.26809082 146.00663574 -10.81352539 145.20467773 -11.37548828 144.37841797 C-13.85697318 140.7453212 -16.39608348 137.15380627 -18.9375 133.5625 C-19.43000244 132.86366699 -19.92250488 132.16483398 -20.42993164 131.44482422 C-24.05609347 126.30653822 -27.74050497 121.21245042 -31.4375 116.125 C-36.45518207 109.21492643 -41.3142749 102.21022132 -46.09838867 95.13671875 C-48.88737166 91.02940774 -51.72748263 86.97429651 -54.671875 82.9765625 C-55.27064453 82.16251953 -55.86941406 81.34847656 -56.48632812 80.50976562 C-57.63359274 78.95848092 -58.78817982 77.41257596 -59.95117188 75.87304688 C-60.46744141 75.17501953 -60.98371094 74.47699219 -61.515625 73.7578125 C-61.97227539 73.1508252 -62.42892578 72.54383789 -62.89941406 71.91845703 C-64.35636577 69.37881051 -64.93034803 67.97052232 -65 65 C-63.12771506 62.55222467 -61.34578759 60.58704633 -59.14672852 58.46557617 C-58.51289246 57.83086395 -57.8790564 57.19615173 -57.22601318 56.54220581 C-55.12421839 54.44459625 -53.00195995 52.36904091 -50.87890625 50.29296875 C-49.41885877 48.8441099 -47.96012909 47.39392197 -46.50267029 45.94245911 C-42.66057518 42.12328771 -38.80080419 38.32247325 -34.93713379 34.52514648 C-30.9987325 30.64808975 -27.07723352 26.75402079 -23.15429688 22.86132812 C-15.45268864 15.22409524 -7.73230876 7.60613978 0 0 Z " fill="#FF9933" transform="translate(228,242)"/>
</svg>
